<?xml version="1.0" encoding="utf-8"?>
<!-- Generator: Adobe Illustrator 24.3.0, SVG Export Plug-In . SVG Version: 6.00 Build 0)  -->
<svg version="1.1" id="Layer_1" xmlns="http://www.w3.org/2000/svg" xmlns:xlink="http://www.w3.org/1999/xlink" x="0px" y="0px"
	 viewBox="0 0 810.8 797.6" style="enable-background:new 0 0 810.8 797.6;" xml:space="preserve">
<style type="text/css">
	.st0{fill:#9B8985;}
	.st1{fill:#FFFFFF;stroke:#FFFFFF;stroke-width:7;stroke-miterlimit:10;}
</style>
<circle class="st0" cx="409.9" cy="399.8" r="391.1"/>
<g id="_x23_0065b7ff_1_">
	<path class="st1" d="M403.8,146.2c1.9-1.9,4.6-3,7.3-2.6c2.2,0.3,4,1.6,5.5,3.1c43.8,41.1,87.4,82.1,131.1,123
		c3,2.6,3.7,7.2,1.6,10.5c-1.5,2.5-4.4,4-7.2,4c-8.2,0-16.4,0-24.6,0c0,41.6,0,83.1,0,124.7c-0.1,8.6-7.9,16.2-16.5,16
		c-60.8,0-121.4,0-182.2,0c-8.6,0.2-16.4-7.4-16.5-16c-0.1-41.6,0-83.1,0-124.7c-8.2-0.1-16.4,0-24.6-0.1c-3.3,0.1-6.5-1.9-7.8-4.8
		c-1.5-3.1-0.8-7,1.7-9.4c10.2-9.6,20.4-19.2,30.6-28.7c0.1-24.4,0-48.8,0-73.1c-0.1-4.3,3.8-8.2,8.1-8.1c13.9-0.1,27.8-0.1,41.8,0
		c4.2,0,7.9,3.7,8,7.8c0.1,6.4-0.1,12.8,0.1,19.2C374.6,173.4,389.3,160,403.8,146.2 M357.9,211.9c-1.5,1.5-3.5,2.4-5.6,2.4
		c-4.5,0.3-8.5-3.7-8.5-8.1c0-9.9,0-19.8,0-29.6c-8.3,0-16.6,0-24.8,0c-0.1,22.7,0.1,45.4-0.1,68.1c0.1,2.6-1.2,4.9-3,6.6
		c-5.9,5.5-11.7,11-17.6,16.4c4.1-0.1,8.1,0,12.3-0.1c3-0.1,5.9,1.7,7.3,4.3c1.2,2.1,1.1,4.4,1,6.7c0.1,43.2,0,86.5,0.1,129.7
		c16.6,0.1,33.1,0,49.7,0c0-33.2,0-66.4,0-99.6c-0.1-8.5,7.3-16,15.8-16.2c16.9-0.1,33.7,0,50.6,0c8.5-0.1,16.1,7.2,16.3,15.7
		c0.1,33.4,0,66.8,0.1,100.2c16.6-0.1,33.1,0,49.7,0c0.1-42.6,0-85.2,0.1-127.9c0-2.9-0.4-6,1-8.6c1.4-2.6,4.4-4.4,7.4-4.3
		c4,0,8.1,0,12.2,0C484.3,233,447.2,198,410,163.2C392.5,179.5,375.2,195.7,357.9,211.9 M385.1,309.1c0.1,33.1-0.1,66.3,0.1,99.4
		c16.6-0.1,33.1-0.1,49.6,0c0-33.1,0-66.3,0-99.4C418.2,309.1,401.6,309.1,385.1,309.1z"/>
	<path class="st1" d="M160.6,320.7c5.9-3.9,13.5-3.9,20.1-2c7.4,2.2,13.3,7.7,17.4,14.2c4.8,7.7,7.6,16.5,9.4,25.3
		c2.9,13.9,3.7,28.2,3.7,42.4c0,4.2-3.6,8-7.8,8.1c-4.6,0.4-8.8-3.7-8.7-8.1c-0.2-15.5-1.1-31.2-5.2-46.3c-1.7-5.8-4-11.8-8.3-16.2
		c-2.8-3-6.9-4.7-11-4c-0.3,0.8-0.5,1.5-0.4,2.4c0.2,17.8,1,35.5,2,53.2c1.2,19.8,2.4,39.5,4.7,59.2c0.4,4.8,1.9,9.4,3.8,13.8
		c8.3,19.5,17.8,38.5,27.3,57.4c4.7,8.9,9.2,17.9,14.5,26.6c2,3.2,4,6.5,7.1,8.9c5.7,4.6,12.1,8.1,18.3,12
		c10.2,6.2,20.2,12.8,28.9,21c8.9,8.4,16.2,18.6,20.5,30c3.6,9.4,5.2,19.6,5.3,29.6c0.1,3.2-1.8,6.4-4.7,7.7h-7.1
		c-2.9-1.3-4.8-4.5-4.7-7.7c0-11.7-2.8-23.6-9-33.7c-6.9-11.3-17.3-19.8-28.2-27c-9-6-18.7-11-27.3-17.5c-4.3-3.1-8.1-7-10.9-11.5
		c-6.7-10.6-12.6-21.9-18.3-33c-7.3-14.2-14.3-28.6-21-43.1c-3.2-7.1-6.5-14.2-9-21.7c-1.8-6.9-2.4-14-3.1-21
		c-3.1-33.6-4.8-67.2-5.6-100.9v-4C153.8,329.4,156,323.9,160.6,320.7z"/>
	<path class="st1" d="M638.2,319.1c6.8-2.2,14.8-2.4,21,1.7c4.5,3.1,6.7,8.6,7.3,13.9v4.2c-0.7,31.6-2.3,63.1-5,94.6
		c-0.6,7.4-1.3,14.7-2.6,22c-1,6.9-4.2,13.1-6.7,19.4c-9.9,22.4-20.7,44.4-32.3,66c-3.5,6.4-6.9,12.6-10.9,18.7
		c-2.6,3.9-5.9,7.3-9.6,10.1c-6.5,5-13.7,9-20.7,13.4c-12.4,7.4-24.6,16-33.1,27.8c-7.2,9.9-11.1,22.1-11.5,34.3
		c-0.1,2.1,0.1,4.2-0.6,6.2c-0.7,2.1-2.2,3.7-4.2,4.7h-7.1c-2.1-1.1-3.7-2.9-4.3-5.2c-0.6-2.5-0.3-5.1-0.2-7.6
		c0.6-12.6,4.2-25.2,10.7-36.1c5.5-9.2,12.8-17.1,21-23.8c11-9.1,23.6-15.8,35.5-23.6c3.9-2.6,7.9-5.4,10.5-9.4
		c5.9-9.1,10.8-18.9,15.8-28.4c6.2-12.2,12.3-24.4,18.2-36.9c4.4-9.6,9.2-19.2,12.6-29.2c1.6-6.9,2-14,2.8-21
		c2.7-32.2,4.6-64.5,5.2-96.9c0-1.2,0.1-2.5-0.4-3.6c-4.9-0.9-9.6,1.9-12.4,5.6c-4.7,6.1-6.7,13.7-8.3,21c-2.8,13.2-3.5,26.6-3.6,40
		c-0.1,4.4-4.2,8.3-8.7,7.9c-4.2-0.1-7.8-3.9-7.8-8.1c0-9.2,0.4-18.5,1.3-27.7c1.5-12.5,3.8-25.1,9.7-36.4
		C623.7,328.9,629.8,321.9,638.2,319.1z"/>
	<path class="st1" d="M204.9,420.8c6.8-4.4,15.7-4.9,23.3-2.6c9.7,2.9,18.3,8.2,26.7,13.7c18.9,13,36,28.4,52.4,44.3
		c21.2,11.5,41.4,25.1,59.1,41.6c9.2,8.7,17.6,18.2,24.2,29.1c6.4,10.5,10.8,22.3,11,34.6c-0.1,7.8-0.3,15.5-1.5,23.2
		c-1,6.9-3.1,13.5-4.7,20.3c-1.7,7.6-2.1,15.4-2.1,23.2c0,3.2-1.9,6.5-4.9,7.7h-6.8c-2.7-1.3-4.7-4.1-4.7-7.1
		c-0.1-8.7,0.4-17.3,2.1-25.8c1.4-6.9,3.6-13.7,4.7-20.7c1-6.5,1.3-13,1.3-19.6c0.1-6.4-1.4-12.8-3.9-18.7
		c-4.4-10.4-11.5-19.5-19.2-27.7c-8.9-9.3-18.9-17.6-29.4-25c-10.9-7.8-22.3-14.9-34.1-21.2c-1.9-1-3.2-2.8-4.7-4.2
		c-10.3-10.1-21.1-19.6-32.3-28.7c-9.6-7.6-19.4-14.9-30.2-20.5c-4.8-2.4-10.4-4.7-15.8-3.1c-2.4,0.6-3.7,3-4,5.2
		c14.9,17.4,29.8,35,45.1,52.1c3,3.3,6,6.8,9.3,9.9c16.6,10.7,32.9,21.8,49.3,32.8c3.7,2.2,4.9,7.5,2.6,11.2c-2.2,4-8,5.3-11.7,2.6
		c-16.4-11-32.7-22.2-49.3-32.9c-3.8-3-6.9-6.7-10.3-10.2c-17-18.7-33.3-38.2-49.8-57.4c-2.4-3-2-7.1-1.5-10.6
		C196.1,430.2,199.5,424.3,204.9,420.8z"/>
	<path class="st1" d="M570.8,428.1c7.8-4.7,16.1-9.3,25.2-11c7.4-1.1,15.7,0.4,21.4,5.5c5.5,4.9,8,12.4,7.6,19.6
		c-0.1,2.1-1,4-2.4,5.6c-14.7,17.1-29.2,34.5-44.3,51.3c-4.8,5.3-9.4,10.7-14.8,15.4c-16.6,10.8-32.8,21.8-49.2,32.8
		c-1.7,1.2-3.7,1.9-5.6,1.7c-4.4-0.2-8-4.4-7.6-8.7c0-3.1,2.2-5.8,4.8-7.2c16.2-10.8,32.2-21.8,48.6-32.3c2.3-2,4.2-4.4,6.3-6.5
		c16.2-18.2,31.9-36.7,47.8-55.2c-0.3-2.1-1.4-4.4-3.6-5.1c-4.5-1.7-9.3-0.2-13.5,1.6c-7.6,3.5-14.5,8.1-21.2,12.9
		c-16.7,12.2-32.2,25.9-46.9,40.4c-2,1.7-4.5,2.6-6.7,4c-18.1,10.2-35.4,21.9-50.7,35.9c-8.5,7.8-16.4,16.5-22.5,26.4
		c-4.8,8-8.3,16.9-8.5,26.3c0,8.8,0.4,17.6,2.4,26.2c1.6,6.9,3.7,13.6,4.6,20.6c1,6.8,1.3,13.7,1.2,20.5c-0.1,3-2,5.8-4.7,7.1h-7.1
		c-2.8-1.4-4.7-4.5-4.7-7.7c-0.1-6.2-0.3-12.5-1.3-18.7c-1.2-7.4-3.6-14.5-5-21.9c-1.4-7.4-1.9-14.9-2-22.4
		c-0.3-6.4,0.4-12.8,2.2-18.9c4.9-17.1,16-31.7,28.4-44.2c17.1-17.1,37-31,57.9-42.9c2.5-1.6,5.5-2.4,7.5-4.7
		C531.7,457.7,550.1,441.3,570.8,428.1z"/>
</g>
</svg>
